<svg xmlns="http://www.w3.org/2000/svg" width="18.722" height="21.238" viewBox="0 0 18.722 21.238">
    <defs>
        <style>
            .cls-1{fill:#b4b4b4}
        </style>
    </defs>
    <g id="Doing_good_icon" data-name="Doing good icon">
        <path id="Path_211" d="M203.544 202.485a13.693 13.693 0 0 0 3.775-.49 7.28 7.28 0 0 0 .645-.223 9.4 9.4 0 0 0-8.839 0c.183.074.4.15.644.223a13.7 13.7 0 0 0 3.775.49zm0 0" class="cls-1" data-name="Path 211" transform="translate(-194.184 -198.151)"/>
        <path id="Path_212" d="M96.8 289.3a7.252 7.252 0 0 1-1.721.929 17.766 17.766 0 0 1-11.436 0 7.254 7.254 0 0 1-1.721-.929 9.361 9.361 0 1 0 14.877 0zm-10.652 3.32a2.178 2.178 0 0 1 2.175 2.175h-1.244a.931.931 0 0 0-1.862 0h-1.245a2.178 2.178 0 0 1 2.175-2.175zm3.213 8.214a5.1 5.1 0 0 1-4.448-2.617l1.087-.606a3.845 3.845 0 0 0 6.722 0l1.087.605a5.1 5.1 0 0 1-4.449 2.617zm4.144-6.038a.931.931 0 0 0-1.862 0H90.4a2.175 2.175 0 0 1 4.35 0zm0 0" class="cls-1" data-name="Path 212" transform="translate(-80 -283.108)"/>
        <path id="Path_213" d="M121.408 145.963a16.546 16.546 0 0 0 10.529 0c1.6-.627 2.482-1.533 2.482-2.552s-.881-1.925-2.482-2.552a16.546 16.546 0 0 0-10.529 0c-1.6.627-2.482 1.533-2.482 2.552s.881 1.925 2.482 2.552zm.454-3.944a15.335 15.335 0 0 1 9.621 0c1.043.408 1.691.942 1.691 1.393s-.648.984-1.691 1.393a15.335 15.335 0 0 1-9.621 0c-1.043-.408-1.691-.942-1.691-1.393s.648-.984 1.691-1.393zm0 0" class="cls-1" data-name="Path 213" transform="translate(-117.311 -140)"/>
    </g>
</svg>
