<svg xmlns="http://www.w3.org/2000/svg" id="Group_287" width="16.043" height="18.199" data-name="Group 287" viewBox="0 0 16.043 18.199">
    <defs>
        <style>
            .cls-1{fill:#fff}
        </style>
    </defs>
    <path id="Path_211" d="M202.912 202.225a11.734 11.734 0 0 0 3.235-.42c.212-.063.4-.128.552-.191a8.053 8.053 0 0 0-7.574 0c.157.063.34.128.552.191a11.741 11.741 0 0 0 3.235.42zm0 0" class="cls-1" data-name="Path 211" transform="translate(-194.891 -198.512)"/>
    <path id="Path_212" d="M94.4 289.3a6.211 6.211 0 0 1-1.474.8 15.224 15.224 0 0 1-9.8 0 6.214 6.214 0 0 1-1.474-.8 8.021 8.021 0 1 0 12.748 0zm-9.128 2.844a1.866 1.866 0 0 1 1.864 1.864h-1.07a.8.8 0 0 0-1.6 0H83.4a1.866 1.866 0 0 1 1.864-1.864zm2.753 7.038a4.367 4.367 0 0 1-3.812-2.242l.932-.519a3.3 3.3 0 0 0 5.76 0l.932.519a4.367 4.367 0 0 1-3.812 2.242zm3.551-5.174a.8.8 0 0 0-1.6 0h-1.065a1.864 1.864 0 0 1 3.728 0zm0 0" class="cls-1" data-name="Path 212" transform="translate(-80 -283.994)"/>
    <path id="Path_213" d="M121.053 145.11a14.178 14.178 0 0 0 9.022 0c1.372-.537 2.127-1.313 2.127-2.186s-.755-1.65-2.127-2.186a14.178 14.178 0 0 0-9.022 0c-1.371.537-2.127 1.313-2.127 2.186s.755 1.65 2.127 2.186zm.389-3.38a13.141 13.141 0 0 1 8.244 0c.894.35 1.449.807 1.449 1.194s-.555.844-1.449 1.194a13.141 13.141 0 0 1-8.244 0c-.894-.35-1.449-.807-1.449-1.194s.555-.843 1.449-1.194zm0 0" class="cls-1" data-name="Path 213" transform="translate(-117.542 -140)"/>
</svg>
