<svg xmlns="http://www.w3.org/2000/svg" width="21.654" height="20.3" viewBox="0 0 21.654 20.3">
    <defs>
        <style>
            .cls-1{fill:#b4b4b4}.cls-2{clip-path:url(#clip-path)}
        </style>
        <clipPath id="clip-path">
            <path id="Rectangle_107" d="M0 0h21.654v20.3H0z" class="cls-1" data-name="Rectangle 107"/>
        </clipPath>
    </defs>
    <g id="Group_280" data-name="Group 280">
        <g id="Group_279" data-name="Group 279">
            <g id="Group_278" class="cls-2" data-name="Group 278">
                <path id="Path_208" d="M138 407.77v8.12a1.355 1.355 0 0 0 1.353 1.353h6.767v-9.473zm0 0" class="cls-1" data-name="Path 208" transform="translate(-136.647 -396.956)"/>
                <path id="Path_209" d="M134.3 221.618h-4.282a5.254 5.254 0 0 0 .755-.605 2.829 2.829 0 0 0 0-3.981 2.86 2.86 0 0 0-3.97 0c-.587.589-2.144 2.986-1.928 4.587h-.1c.214-1.6-1.343-4-1.928-4.587a2.862 2.862 0 0 0-3.97 0 2.832 2.832 0 0 0 0 3.981 5.345 5.345 0 0 0 .757.605h-4.282a1.356 1.356 0 0 0-1.352 1.354V225a.677.677 0 0 0 .677.677h8.8v-2.707h2.707v2.707h8.8a.677.677 0 0 0 .677-.677v-2.03a1.355 1.355 0 0 0-1.353-1.353zm-10.907-.045a.447.447 0 0 1-.25.045 6.656 6.656 0 0 1-3.3-1.559 1.476 1.476 0 0 1 0-2.073 1.443 1.443 0 0 1 2.05 0c.912.918 1.819 3.262 1.5 3.588zm3.115.045c-.192 0-.249-.043-.249-.045-.315-.326.591-2.67 1.5-3.588a1.458 1.458 0 0 1 2.051 2.073 6.655 6.655 0 0 1-3.3 1.559zm0 0" class="cls-1" data-name="Path 209" transform="translate(-114 -216.218)"/>
            </g>
        </g>
        <path id="Path_210" d="M330 407.77v9.474h6.767a1.354 1.354 0 0 0 1.353-1.353v-8.12zm0 0" class="cls-1" data-name="Path 210" transform="translate(-317.82 -396.956)"/>
    </g>
</svg>
